<svg id="Download_on_the_App_Store_Badge_JP_RGB_blk_100317" xmlns="http://www.w3.org/2000/svg" width="342.264" height="125.773" viewBox="0 0 342.264 125.773">
  <g id="グループ_12" data-name="グループ 12">
    <path id="パス_57" data-name="パス 57" d="M312.3,0H29.98c-1.153,0-2.292,0-3.442.006-.963.006-1.918.025-2.889.04a41.551,41.551,0,0,0-6.3.556,20.957,20.957,0,0,0-5.977,1.971,20.242,20.242,0,0,0-5.09,3.706,19.679,19.679,0,0,0-3.7,5.1A20.756,20.756,0,0,0,.611,17.361a40.853,40.853,0,0,0-.563,6.295c-.029.964-.032,1.931-.048,2.9V99.23c.015.976.018,1.922.048,2.9a40.853,40.853,0,0,0,.563,6.295,20.714,20.714,0,0,0,1.965,5.988,19.519,19.519,0,0,0,3.7,5.076,19.729,19.729,0,0,0,5.09,3.706,21.069,21.069,0,0,0,5.977,1.983,42.308,42.308,0,0,0,6.3.556c.972.021,1.927.034,2.889.034,1.15.006,2.289.006,3.442.006H312.3c1.13,0,2.278,0,3.408-.006.958,0,1.941-.012,2.9-.034a41.752,41.752,0,0,0,6.289-.556,21.4,21.4,0,0,0,6-1.983,19.738,19.738,0,0,0,5.085-3.706,20.108,20.108,0,0,0,3.715-5.076,20.767,20.767,0,0,0,1.947-5.988,42.471,42.471,0,0,0,.584-6.295c.012-.977.012-1.922.012-2.9.025-1.142.025-2.278.025-3.439V29.985c0-1.151,0-2.294-.025-3.433,0-.964,0-1.931-.012-2.9a42.467,42.467,0,0,0-.584-6.295,20.808,20.808,0,0,0-1.947-5.985,20.331,20.331,0,0,0-8.8-8.8A21.279,21.279,0,0,0,324.9.6a41.014,41.014,0,0,0-6.289-.556c-.958-.015-1.941-.034-2.9-.04C314.579,0,313.431,0,312.3,0Z" fill="#a6a6a6"/>
    <path id="パス_58" data-name="パス 58" d="M24.681,121.145c-.958,0-1.893-.012-2.843-.034a39.893,39.893,0,0,1-5.877-.513,18.5,18.5,0,0,1-5.209-1.723,17,17,0,0,1-4.393-3.2,16.73,16.73,0,0,1-3.209-4.391,17.991,17.991,0,0,1-1.707-5.211,39.032,39.032,0,0,1-.524-5.9C.9,99.519.873,97.311.873,97.311V24.675S.9,22.5.919,21.863a38.9,38.9,0,0,1,.52-5.886A18.1,18.1,0,0,1,3.148,10.75a16.9,16.9,0,0,1,3.192-4.4A17.5,17.5,0,0,1,10.75,3.14a18.31,18.31,0,0,1,5.2-1.71,39.574,39.574,0,0,1,5.9-.516L24.683.875H313.822l2.871.04a38.942,38.942,0,0,1,5.843.511,18.672,18.672,0,0,1,5.254,1.723,17.588,17.588,0,0,1,7.594,7.609,18.121,18.121,0,0,1,1.683,5.185,40.861,40.861,0,0,1,.546,5.934c.009.89.009,1.847.009,2.8.025,1.179.025,2.3.025,3.433V93.915c0,1.142,0,2.257-.025,3.381,0,1.023,0,1.959-.012,2.923a40.033,40.033,0,0,1-.537,5.828,18.046,18.046,0,0,1-1.7,5.251,17.232,17.232,0,0,1-3.193,4.357,17.019,17.019,0,0,1-4.4,3.215,18.431,18.431,0,0,1-5.245,1.729,39.437,39.437,0,0,1-5.877.513c-.921.021-1.885.034-2.822.034l-3.408.006Z" transform="translate(1.872 1.876)"/>
  </g>
  <g id="グループ_13" data-name="グループ 13" transform="translate(108.249 27.108)">
    <path id="パス_59" data-name="パス 59" d="M55.622,33.187H42.882L39.823,42.22h-5.4L46.493,8.8H52.1L64.166,42.22H58.678ZM44.2,29.018H54.3L49.322,14.357h-.139Z" transform="translate(-34.427 -8.241)" fill="#fff"/>
    <path id="パス_60" data-name="パス 60" d="M67.826,24.04c0,7.572-4.053,12.437-10.169,12.437a8.261,8.261,0,0,1-7.667-4.263h-.116V44.283h-5V11.855h4.841v4.053h.092A8.644,8.644,0,0,1,57.565,11.6C63.75,11.6,67.826,16.489,67.826,24.04Zm-5.141,0c0-4.933-2.549-8.177-6.439-8.177-3.822,0-6.392,3.312-6.392,8.177,0,4.91,2.57,8.2,6.392,8.2,3.89,0,6.439-3.22,6.439-8.2Z" transform="translate(-12.027 -2.243)" fill="#fff"/>
    <path id="パス_61" data-name="パス 61" d="M76.357,24.04c0,7.572-4.054,12.437-10.17,12.437a8.261,8.261,0,0,1-7.667-4.263H58.4V44.283h-5V11.855h4.841v4.053h.092A8.644,8.644,0,0,1,66.095,11.6C72.279,11.6,76.357,16.489,76.357,24.04Zm-5.142,0c0-4.933-2.549-8.177-6.439-8.177-3.822,0-6.392,3.312-6.392,8.177,0,4.91,2.57,8.2,6.392,8.2,3.89,0,6.439-3.22,6.439-8.2Z" transform="translate(6.263 -2.243)" fill="#fff"/>
    <path id="パス_62" data-name="パス 62" d="M69.831,33.288c.371,3.314,3.59,5.491,7.99,5.491,4.216,0,7.249-2.176,7.249-5.165,0-2.594-1.829-4.147-6.161-5.212l-4.331-1.043c-6.137-1.482-8.986-4.352-8.986-9.01,0-5.767,5.025-9.727,12.159-9.727,7.065,0,11.906,3.961,12.069,9.727H84.77C84.468,15.013,81.711,13,77.682,13S70.9,15.037,70.9,18c0,2.363,1.761,3.753,6.069,4.818l3.682.9c6.857,1.622,9.7,4.376,9.7,9.265,0,6.253-4.978,10.169-12.9,10.169-7.412,0-12.416-3.824-12.739-9.869Z" transform="translate(30.512 -8.621)" fill="#fff"/>
    <path id="パス_63" data-name="パス 63" d="M82.143,9.844v5.767h4.634v3.961H82.143V33.005c0,2.087.928,3.059,2.965,3.059a15.628,15.628,0,0,0,1.645-.116v3.937a13.735,13.735,0,0,1-2.778.231c-4.933,0-6.857-1.853-6.857-6.579V19.572H73.575V15.611h3.543V9.844Z" transform="translate(49.519 -5.999)" fill="#fff"/>
    <path id="パス_64" data-name="パス 64" d="M78.626,24.067c0-7.667,4.515-12.484,11.557-12.484,7.065,0,11.559,4.818,11.559,12.484,0,7.688-4.471,12.484-11.559,12.484S78.626,31.755,78.626,24.067Zm18.02,0c0-5.259-2.41-8.363-6.463-8.363s-6.463,3.128-6.463,8.363c0,5.28,2.41,8.361,6.463,8.361S96.646,29.348,96.646,24.067Z" transform="translate(60.35 -2.271)" fill="#fff"/>
    <path id="パス_65" data-name="パス 65" d="M87.289,11.855h4.77V16h.116a5.812,5.812,0,0,1,5.861-4.4,7.714,7.714,0,0,1,1.714.187v4.678a6.992,6.992,0,0,0-2.247-.3,5.04,5.04,0,0,0-5.212,5.606V36.222h-5Z" transform="translate(78.927 -2.243)" fill="#fff"/>
    <path id="パス_66" data-name="パス 66" d="M113.576,29.093a9.779,9.779,0,0,1-10.492,7.459C96,36.552,91.6,31.8,91.6,24.183c0-7.643,4.423-12.6,11.278-12.6,6.742,0,10.981,4.631,10.981,12.019v1.714H96.645v.3a6.346,6.346,0,0,0,6.555,6.9,5.513,5.513,0,0,0,5.627-3.427ZM96.668,21.82h12.182a5.86,5.86,0,0,0-5.977-6.184,6.169,6.169,0,0,0-6.205,6.184Z" transform="translate(88.161 -2.271)" fill="#fff"/>
  </g>
  <g id="グループ_14" data-name="グループ 14" transform="translate(108.115 73.495)">
    <path id="パス_67" data-name="パス 67" d="M40.837,45.65l.207-2.576a9.849,9.849,0,0,0,2.989.476c.918,0,1.273-.089,1.718-.712a14.354,14.354,0,0,0,1.36-7.28c0-2.665-.828-3.436-2.929-3.436-.474,0-1.007.031-1.6.061a43.163,43.163,0,0,1-5.564,12.964l-2.458-1.333a34.812,34.812,0,0,0,5.18-11.367,43,43,0,0,0-4.824.8l-.533-2.607c1.806-.325,3.966-.62,5.979-.8a55.371,55.371,0,0,0,.918-5.951l2.9.326c-.267,1.806-.593,3.614-1.007,5.389H44.33c3.76,0,5.565,1.864,5.565,5.831a18.343,18.343,0,0,1-1.716,8.791,3.636,3.636,0,0,1-3.553,1.895,16.292,16.292,0,0,1-3.789-.473ZM50.368,29.7l2.162-1.452A16.661,16.661,0,0,1,57.592,39.2l-2.842.442A13.83,13.83,0,0,0,50.368,29.7Z" transform="translate(-34.384 -22.264)" fill="#fff"/>
    <path id="パス_68" data-name="パス 68" d="M48.17,46.125l-.591-2.665c.74.061,1.716.089,2.309.089,5.86,0,8.08-1.655,8.08-4.115,0-1.953-1.273-3.077-4.115-3.077a12.7,12.7,0,0,0-8.111,3.967l-2.28-1.007a17.368,17.368,0,0,1,2.517-11.1l2.635.857a11.594,11.594,0,0,0-2.249,7.7,15.145,15.145,0,0,1,8.082-2.754c3.967,0,6.424,2.042,6.424,5.358,0,4.2-3.316,6.78-11.278,6.78C49.206,46.156,48.644,46.125,48.17,46.125ZM45.417,26.47l.74-2.607a81.391,81.391,0,0,1,11.635,2.665L57.081,29.1A66.477,66.477,0,0,0,45.417,26.47Z" transform="translate(-15.147 -22.325)" fill="#fff"/>
    <path id="パス_69" data-name="パス 69" d="M54.1,45.132a18.7,18.7,0,0,0,7.962-5.153,33.628,33.628,0,0,0-5.535-3.728l1.627-2.042a35.987,35.987,0,0,1,5.624,3.55,18.72,18.72,0,0,0,2.9-6.838H59.127a30.507,30.507,0,0,1-6.453,7.431l-2.162-1.864A28.059,28.059,0,0,0,58.744,25.18l2.842.682c-.326.829-.651,1.686-1.036,2.487h7.342l2.1.976a22.454,22.454,0,0,1-14.18,18.117ZM66.587,24.47l1.658-.8a17.85,17.85,0,0,1,2.1,3.642l-1.865.86a16.144,16.144,0,0,0-1.895-3.7Zm3.7-.3,1.687-.8A19.985,19.985,0,0,1,74.137,27.1l-1.865.8a16.252,16.252,0,0,0-1.984-3.731Z" transform="translate(0.2 -23.374)" fill="#fff"/>
    <path id="パス_70" data-name="パス 70" d="M65.363,46.212l-1.509-2.4a12.4,12.4,0,0,0,10.42-13.053H61.841v5.951H58.85V28.243h7.431V23.892H69.27v4.351h5.536l2.724.771C77.174,37.421,74.363,43.845,65.363,46.212Z" transform="translate(18.078 -22.264)" fill="#fff"/>
    <path id="パス_71" data-name="パス 71" d="M66.623,27l1.658-2.429a36.736,36.736,0,0,1,7.28,4.412l-1.895,2.546A34.756,34.756,0,0,0,66.623,27Zm.562,14.595A23.008,23.008,0,0,0,84.266,29.277l1.953,2.192A25.04,25.04,0,0,1,68.311,44.344Z" transform="translate(34.745 -20.811)" fill="#fff"/>
    <path id="パス_72" data-name="パス 72" d="M93.269,42.449H74.649V24.833h18.62ZM77.581,27.557V39.726H90.309V27.557Z" transform="translate(51.956 -20.245)" fill="#fff"/>
    <path id="パス_73" data-name="パス 73" d="M103.322,29.979H82.393V26.961h20.929Z" transform="translate(68.562 -15.683)" fill="#fff"/>
    <path id="パス_74" data-name="パス 74" d="M91.314,24.263h2.929v7.578A91.228,91.228,0,0,1,105.552,37.5l-1.658,2.6a71.45,71.45,0,0,0-9.651-5.18V46.347H91.314Zm6.955,1.6,1.747-.829a19.477,19.477,0,0,1,2.1,4.026l-1.925.86a17.343,17.343,0,0,0-1.925-4.056Zm3.375-1.274,1.778-.829a19.2,19.2,0,0,1,2.22,4.025l-1.925.86a19.267,19.267,0,0,0-2.073-4.056Z" transform="translate(87.691 -22.547)" fill="#fff"/>
  </g>
  <g id="_Group_" data-name="&lt;Group&gt;" transform="translate(31.354 27.419)">
    <g id="_Group_2" data-name="&lt;Group&gt;">
      <path id="_Path_" data-name="&lt;Path&gt;" d="M56.5,33.869a15.561,15.561,0,0,1,7.41-13.055,15.928,15.928,0,0,0-12.549-6.784c-5.28-.554-10.4,3.16-13.089,3.16-2.743,0-6.885-3.1-11.346-3.013a16.713,16.713,0,0,0-14.064,8.577c-6.081,10.528-1.545,26,4.28,34.512,2.914,4.167,6.321,8.822,10.778,8.657,4.361-.181,5.99-2.781,11.255-2.781,5.216,0,6.744,2.781,11.291,2.676,4.68-.076,7.629-4.186,10.441-8.393A34.468,34.468,0,0,0,65.678,47.7,15.036,15.036,0,0,1,56.5,33.869Z" transform="translate(-9.972 2.543)" fill="#fff"/>
      <path id="_Path_2" data-name="&lt;Path&gt;" d="M29,19.7A15.321,15.321,0,0,0,32.5,8.72a15.588,15.588,0,0,0-10.086,5.218,14.578,14.578,0,0,0-3.6,10.569A12.889,12.889,0,0,0,29,19.7Z" transform="translate(8.939 -8.72)" fill="#fff"/>
    </g>
  </g>
</svg>
