<svg xmlns="http://www.w3.org/2000/svg" viewBox="0 0 114.98 41.77"><defs><style>.cls-1{fill:#ef8e8d;}.cls-2{fill:#f3e9f3;}.cls-3{fill:#fff;}</style></defs><g id="レイヤー_2" data-name="レイヤー 2"><g id="レイヤー_1-2" data-name="レイヤー 1"><polygon class="cls-1" points="105.23 41.77 39.11 41.77 52.65 2.5 114.98 2.5 105.23 41.77"/><path class="cls-2" d="M72.87,19.66l.7-.7L80.65,26l-.7.7Zm.7,7.08-.7-.7L80,19l.7.7Z"/><path class="cls-1" d="M19.34,27.11a4.7,4.7,0,0,1-2.61,2.49,9.12,9.12,0,0,1-3.88.9c-.53.91-1.06,1.76-1.6,2.54a16.59,16.59,0,0,1-1.71,2.1,6.91,6.91,0,0,1-3.49,2.41l-.47.05-.39,0A1.89,1.89,0,0,1,3,35.51c0-.73.17-1.09.51-1.09q.26,0,.21.54c-.14.87.19,1.3,1,1.3a1.66,1.66,0,0,0,.72-.15Q8,35.21,10.55,30a7.73,7.73,0,0,1-1.8-.93A42.63,42.63,0,0,1,6,33.91a.15.15,0,0,1-.25,0c-.13-.07-.15-.15-.07-.24.4-.65.81-1.38,1.25-2.19s.89-1.73,1.37-2.73A14.6,14.6,0,0,1,4,23.26,18.71,18.71,0,0,1,2.2,16.72c-.07-.73-.11-1.43-.11-2.09A14,14,0,0,1,4.25,6.45a5.39,5.39,0,0,1,4.5-2.74,4,4,0,0,1,3.31,1.77,8.53,8.53,0,0,1,1.44,5.3q-.08,8.15-4.5,17.8a4.74,4.74,0,0,0,.85.58,8.44,8.44,0,0,0,.91.44A44.48,44.48,0,0,0,13,23.8a39.89,39.89,0,0,0,2.3-12.09q0-6.15-3.34-9.37A4.89,4.89,0,0,0,8.53.79Q5.7.79,3.34,4.11a11.54,11.54,0,0,0-2.23,6.7,6.34,6.34,0,0,0,.47,2.55,2.9,2.9,0,0,1,.18.79c0,.32-.11.48-.32.48s-.52-.23-.68-.69A9.42,9.42,0,0,1,0,10.16a11,11,0,0,1,2.48-7A7.4,7.4,0,0,1,8.35,0a7.1,7.1,0,0,1,4.29,1.58q4.53,3.54,4.53,11.78c0,.82,0,1.66-.1,2.5a23.72,23.72,0,0,1-.37,2.65c.63-1.51,1.21-2.81,1.72-3.9a27.12,27.12,0,0,1,1.44-2.69q4.29-7,7-7c1,0,1.77.73,2.3,2.2a15.23,15.23,0,0,1,.76,5.32c0,.48,0,1,0,1.44s-.06,1-.1,1.52c-.1.81-.23,1.77-.42,2.89s-.43,2.41-.74,3.87-.54,2.73-.71,3.56-.27,1.36-.29,1.56A75.58,75.58,0,0,1,35,15.08Q41.08,6.64,45.72,4.5a9.62,9.62,0,0,1,3.46-1,1.16,1.16,0,0,1,1.32,1.3q0,2.81-5.15,9.64a61.28,61.28,0,0,0-6.68,10.91,38.48,38.48,0,0,0-2.56,6.25,18.92,18.92,0,0,0-.87,5.06q0,2.4,1.2,2.4A3.81,3.81,0,0,0,39,37.51a.67.67,0,0,1,.54-.31c.14,0,.21,0,.21.17s-.17.45-.51.79A6.19,6.19,0,0,1,35,40.22q-2.16,0-2.16-3.24a11.36,11.36,0,0,1,0-1.14,8.67,8.67,0,0,1,.19-1.21,38.67,38.67,0,0,1,3.78-9.76c.62-1.26,1.41-2.75,2.37-4.45s2.1-3.65,3.4-5.83q1.75-3,2.8-4.83c.7-1.22,1.16-2.07,1.4-2.55a4.43,4.43,0,0,0,.44-1.48c0-.32-.12-.47-.35-.47-.82,0-2.51,1.23-5.05,3.7a75.85,75.85,0,0,0-7.56,8.83,42.94,42.94,0,0,0-6,10.3c-.58,1.47-1.18,2.2-1.81,2.2-.38,0-.57-.32-.57-.95,0-.12,0-.24,0-.35s0-.24.05-.37a84.17,84.17,0,0,0,1.76-13.2q.13-9-2-9t-6.08,8.11Q18.28,17.5,17,20.5t-2.36,6.11a21.66,21.66,0,0,1-1.56,3.45,8,8,0,0,0,3.42-.79A4.23,4.23,0,0,0,18.93,27a.19.19,0,0,1,.27-.11C19.34,26.88,19.38,27,19.34,27.11ZM8.53,28.23a43.08,43.08,0,0,0,4-17.24,9.26,9.26,0,0,0-1.23-5.12A3.37,3.37,0,0,0,8.49,4.18q-2.16,0-3.71,2.48A14.22,14.22,0,0,0,3,14.19c0,.75,0,1.49.11,2.23a20.48,20.48,0,0,0,1.62,6.31A14.48,14.48,0,0,0,8.53,28.23Z"/><path class="cls-3" d="M60.84,8.84l-.1.1A3.29,3.29,0,0,1,62.3,10a2.74,2.74,0,0,1,.64,1.72,6.22,6.22,0,0,1-.87,3.16L62,15A5.73,5.73,0,0,0,66,13.39a.36.36,0,0,1,.25-.14c.1,0,.15.06.15.19a.53.53,0,0,1-.25.45,6.61,6.61,0,0,1-4.48,1.71A6,6,0,0,1,60,17.05a3.76,3.76,0,0,1-1.79.57c-1.18,0-1.76-.68-1.73-2.06a9.84,9.84,0,0,1,.73-3.42c0-.14,0-.28,0-.44s0-.31,0-.46a2.15,2.15,0,0,1,2.09-2.42,1.54,1.54,0,0,1,1-.65c.48,0,.72.14.72.41A.39.39,0,0,1,60.84,8.84ZM57.94,14v0a6.77,6.77,0,0,0-.21,1.45c0,.94.35,1.41,1,1.4a2.5,2.5,0,0,0,2.08-1.28A4.17,4.17,0,0,1,57.94,14Zm2.41-4.65a10.77,10.77,0,0,0-2,3.21A3,3,0,0,0,61.19,15a7.36,7.36,0,0,0,.9-3.29,2.87,2.87,0,0,0-.47-1.63A1.57,1.57,0,0,0,60.35,9.34Z"/><path class="cls-3" d="M80.49,13.63q-2.83,3.15-4.81,3.16c-1.43,0-2.08-1.32-2-4q-.18.18-.45.51c-.18.22-.41.5-.68.85L71,16.54c-.32.38-.61.52-.87.41a.38.38,0,0,1-.32-.52l.07-.83c0-.28.07-.54.08-.78s0-.47,0-.68Q70.14,12,69.54,12c-.33,0-.84.37-1.53,1.1a11.06,11.06,0,0,0-1.57,2.27,6.35,6.35,0,0,1-.93,1.47.89.89,0,0,1-.31.08c-.24,0-.37-.17-.37-.5a.67.67,0,0,1,0-.23l.48-1.11c.21-.48.46-1.06.74-1.75a13,13,0,0,0,1.08-3.08A2.36,2.36,0,0,1,68,9.74c.55-.27.82-.2.83.19L68,12.49c.13-.14.3-.3.5-.48s.41-.38.66-.59a1.68,1.68,0,0,1,.89-.26c.81,0,1.27.49,1.38,1.49,0,0,0,.25,0,.69s0,1.11-.06,2c.54-.84,1.59-2.32,3.17-4.47a1.32,1.32,0,0,1,1-.62c.19,0,.28.1.28.31a.76.76,0,0,1,0,.15,1.49,1.49,0,0,1,0,.18,12.9,12.9,0,0,0-.62,3.47c0,1.11.39,1.66,1.15,1.66a3.59,3.59,0,0,0,2.1-1l.63-.6c.29-.29.64-.64,1-1.08a.54.54,0,0,1,.31-.19c.07,0,.12.05.16.16A.25.25,0,0,1,80.49,13.63Z"/><path class="cls-3" d="M89.19,13.68a9,9,0,0,1-3,2.22,8.67,8.67,0,0,1-3.9,1.19q-2.41,0-2.43-2.64a5.39,5.39,0,0,1,.64-2.29A7.38,7.38,0,0,1,82.17,9.8a3.24,3.24,0,0,1,2.1-1.08A1.15,1.15,0,0,1,85.59,10a2.78,2.78,0,0,1-.68,1.67,6.28,6.28,0,0,1-3.46,2.06,4.11,4.11,0,0,0-.1.94c0,1.18.56,1.76,1.65,1.76a7.22,7.22,0,0,0,3.22-1.08,14.93,14.93,0,0,0,1.52-1,7.06,7.06,0,0,0,1.08-1c.33-.35.49-.37.5-.05A.72.72,0,0,1,89.19,13.68Zm-4.8-2.4a3,3,0,0,0,.49-1.44c0-.32-.11-.47-.31-.47-.37,0-.87.43-1.51,1.29a12.68,12.68,0,0,0-1.46,2.61A4.69,4.69,0,0,0,84.39,11.28Z"/><path class="cls-3" d="M88.85,16.48a.39.39,0,0,1-.37.26.63.63,0,0,1-.47-.25.49.49,0,0,1-.18-.42L88.32,15c.21-.48.46-1.06.74-1.75a12.27,12.27,0,0,0,1.07-3.08A2.78,2.78,0,0,1,91,9.6c.55-.27.82-.2.82.2a45.11,45.11,0,0,1-2.25,5.29l2.06-2.23c.73-.79,1.51-1.65,2.33-2.56.38-.43.68-.65.91-.65s.18.09.18.27a1.46,1.46,0,0,1-.07.4,17.66,17.66,0,0,0-.86,4.17c0,.94.33,1.41,1,1.41a3.61,3.61,0,0,0,2.1-1q.21-.18.63-.6c.29-.28.63-.64,1-1.07a.49.49,0,0,1,.31-.19c.07,0,.12.05.16.16a.26.26,0,0,1-.08.28q-2.64,2.94-4.65,2.95c-1.22,0-1.84-.94-1.85-2.83a13.66,13.66,0,0,1,.07-1.37q-.33.3-.81.78c-.32.31-.7.68-1.15,1.09l-.64.64c-.19.2-.38.42-.56.65l-.39.52Z"/><path class="cls-3" d="M98.91,9.42h.38l.41,0,.32,0h.4c.12-.23.29-.55.52-1s.51-.94.84-1.57c.19-.35.42-.72.67-1.12s.55-.85.88-1.34a1.87,1.87,0,0,1,1.4-.53q.75,0,.75.39a.37.37,0,0,1-.07.19c-.36.5-.82,1.16-1.37,2s-1.19,1.81-1.93,3l4.07,0c.25.09.38.2.38.33s-.31.43-.93.5c-.11,0-.49,0-1.14,0s-1.61,0-2.87,0a8.94,8.94,0,0,0-1.24,3.9c0,1.14.49,1.7,1.45,1.7a3.27,3.27,0,0,0,1.56-.48,9.21,9.21,0,0,0,1.18-.86,14.55,14.55,0,0,0,1.29-1.24c.16-.18.3-.26.41-.24s.13.06.13.19a.61.61,0,0,1-.12.33q-2.93,3.1-5,3a1.92,1.92,0,0,1-2-1.7c0-.18-.06-.36-.09-.53a4.49,4.49,0,0,1,0-.51,8.87,8.87,0,0,1,.87-3.6l-.82,0c-.17,0-.22,0-.15,0-.4,0-.61-.22-.65-.51S98.5,9.43,98.91,9.42Z"/><path class="cls-3" d="M52.46,36.73a9.06,9.06,0,0,1-3,2.2,8.68,8.68,0,0,1-3.91,1.17c-1.6,0-2.41-.89-2.41-2.66a5.39,5.39,0,0,1,.65-2.28,7.54,7.54,0,0,1,1.64-2.35,3.17,3.17,0,0,1,2.1-1.07A1.15,1.15,0,0,1,48.88,33a2.82,2.82,0,0,1-.68,1.66,6.3,6.3,0,0,1-3.48,2,4.11,4.11,0,0,0-.1.94c0,1.18.54,1.77,1.63,1.77a7.06,7.06,0,0,0,3.23-1.06,16.42,16.42,0,0,0,1.53-1,6.59,6.59,0,0,0,1.08-1c.33-.35.5-.37.5,0A.63.63,0,0,1,52.46,36.73ZM47.68,34.3a3,3,0,0,0,.49-1.44c0-.31-.1-.47-.3-.47-.37,0-.87.43-1.51,1.28a12.61,12.61,0,0,0-1.49,2.61A4.69,4.69,0,0,0,47.68,34.3Z"/><path class="cls-3" d="M66.74,36.63q-2.85,3.12-4.83,3.12c-1.42,0-2.07-1.32-1.93-4-.12.12-.27.29-.45.5l-.69.85-1.57,2.35c-.32.38-.61.51-.87.4a.38.38,0,0,1-.32-.52l.08-.82c0-.28.07-.54.09-.79s0-.46,0-.67c.06-1.43-.1-2.14-.5-2.14s-.84.37-1.53,1.1a10.5,10.5,0,0,0-1.59,2.25,6.35,6.35,0,0,1-.94,1.46.58.58,0,0,1-.31.08c-.24,0-.36-.16-.36-.49a.69.69,0,0,1,0-.23l.5-1.11c.21-.48.46-1.06.75-1.75a13.25,13.25,0,0,0,1.09-3.07,2.58,2.58,0,0,1,.84-.52c.55-.26.82-.2.82.2l-.82,2.55.5-.47c.2-.19.42-.38.66-.59a1.7,1.7,0,0,1,.89-.26c.81,0,1.27.5,1.37,1.5,0,0,0,.25,0,.69s0,1.11-.08,2q.81-1.25,3.2-4.44a1.31,1.31,0,0,1,1-.63c.19,0,.28.11.28.32a.76.76,0,0,1,0,.15s0,.11,0,.18a13.1,13.1,0,0,0-.65,3.47c0,1.11.38,1.66,1.15,1.66a3.5,3.5,0,0,0,2.1-.94c.14-.12.35-.32.64-.6s.64-.63,1-1.06a.5.5,0,0,1,.32-.19c.07,0,.12.05.15.16A.26.26,0,0,1,66.74,36.63Z"/><path class="cls-3" d="M70.43,31.72l-.11.1a3.34,3.34,0,0,1,1.57,1.1,2.71,2.71,0,0,1,.62,1.72,6.12,6.12,0,0,1-.89,3.16l-.05.11a5.66,5.66,0,0,0,4-1.61.36.36,0,0,1,.25-.14c.11,0,.16.07.16.19a.57.57,0,0,1-.26.45,6.62,6.62,0,0,1-4.49,1.69,6.16,6.16,0,0,1-1.67,1.43,3.64,3.64,0,0,1-1.8.56c-1.17,0-1.75-.69-1.71-2.07A9.92,9.92,0,0,1,66.76,35c0-.13,0-.28,0-.43s0-.31,0-.47a2.14,2.14,0,0,1,2.1-2.4,1.54,1.54,0,0,1,1-.64c.48,0,.72.14.72.41A.39.39,0,0,1,70.43,31.72Zm-2.94,5.13v0a6.77,6.77,0,0,0-.21,1.45c0,.94.34,1.41,1,1.41a2.52,2.52,0,0,0,2.09-1.27A4.17,4.17,0,0,1,67.49,36.85Zm2.44-4.64a11.11,11.11,0,0,0-2,3.2,3,3,0,0,0,2.78,2.45,7.24,7.24,0,0,0,.92-3.28,2.85,2.85,0,0,0-.46-1.64A1.59,1.59,0,0,0,69.93,32.21Z"/><path class="cls-3" d="M87.82,36.82A17,17,0,0,1,82.93,40a5.37,5.37,0,0,1-1.79.38c-1.23,0-1.86-.65-1.88-2a7.56,7.56,0,0,1,1.22-3.69,1.55,1.55,0,0,1-1.22-.42,1.51,1.51,0,0,1-.52-1.17A12.81,12.81,0,0,1,75.47,37a.58.58,0,0,1-.42.18q-.15,0-.15-.12c0-.09.07-.2.22-.35a14.23,14.23,0,0,0,3.23-4.2,1.34,1.34,0,0,1-.1-.42,3.4,3.4,0,0,1-.08-.73,2.19,2.19,0,0,1,.57-1.58,1.48,1.48,0,0,1,1.12-.54.68.68,0,0,1,.79.72,4.44,4.44,0,0,1-1.39,2.75c0,.54.26.8.84.8a2.74,2.74,0,0,0,.79-.14,3.08,3.08,0,0,1,.68-.14.69.69,0,0,1,.79.78,1.32,1.32,0,0,1-.22.66c-.08.13-.19.33-.32.58s-.27.54-.42.89a9,9,0,0,0-.65,1.72,3.29,3.29,0,0,0-.08.66c0,.71.34,1.06,1,1.06a6.58,6.58,0,0,0,3.16-1.12,12.68,12.68,0,0,0,1.51-1,10.38,10.38,0,0,0,1.19-1,.65.65,0,0,1,.4-.24c.1,0,.15.05.15.16A.77.77,0,0,1,87.82,36.82Z"/><path class="cls-3" d="M95,36.68c-2,2.08-3.65,3.1-5,3q-2.39,0-2.16-3.33a7.88,7.88,0,0,1,1.54-3.61,1.22,1.22,0,0,1,1.11-.45c.42,0,.62.12.62.34a.59.59,0,0,1,0,.21c-.28.54-.52,1-.7,1.25l-.34.55c-.18.36-.33.69-.45,1a3.66,3.66,0,0,0-.22.81,5.65,5.65,0,0,0-.08.89c0,1.14.41,1.71,1.22,1.71q1.66,0,4.14-2.65.26-.27.42-.27a.22.22,0,0,1,.13.19A.63.63,0,0,1,95,36.68ZM93.94,28c0,.88-.38,1.31-1.14,1.31a.93.93,0,0,1-.7-.31,1,1,0,0,1-.29-.68,1.07,1.07,0,0,1,.44-.86A1.32,1.32,0,0,1,93,27.2C93.63,27.2,93.94,27.47,93.94,28Z"/><path class="cls-3" d="M103.82,36.73a9.28,9.28,0,0,1-3,2.2A8.72,8.72,0,0,1,97,40.1c-1.61,0-2.42-.89-2.42-2.66a5.39,5.39,0,0,1,.65-2.28,7.54,7.54,0,0,1,1.64-2.35,3.19,3.19,0,0,1,2.11-1.07A1.15,1.15,0,0,1,100.24,33a2.78,2.78,0,0,1-.69,1.66,6.3,6.3,0,0,1-3.48,2,4.11,4.11,0,0,0-.1.94c0,1.18.55,1.77,1.64,1.77a7,7,0,0,0,3.22-1.06,14.13,14.13,0,0,0,1.53-1,7.14,7.14,0,0,0,1.09-1c.33-.35.49-.37.49,0A.7.7,0,0,1,103.82,36.73ZM99,34.3a3,3,0,0,0,.49-1.44c0-.31-.1-.47-.3-.47-.36,0-.87.43-1.51,1.28a13.08,13.08,0,0,0-1.49,2.61A4.69,4.69,0,0,0,99,34.3Z"/></g></g></svg>